PathFileType	4	(X/Y/Z)	C:\Users\Basilio\Documents\Thesis Gigler\squatting_fais\c3dfiles\073\SJ_pre2\markers_experimental.trc
DataRate	CameraRate	NumFrames	NumMarkers	Units	OrigDataRate	OrigDataStartFrame	OrigNumFrames
200.000000	200.000000	4	61	mm	200.000000	189	1514
Frame#	Time	FHD			LBHD			RBHD			C7			T10			CLAV			LSHO			LUUPA			LMUPA			LDUPA			LLEP			LMEP			LRAD			LUL			LRFIN			RSHO			RUPA1			RMUPA			RDUPA			RLEP			RMEP			RRAD			RUL			RUFIN			LASI			RASI			USACR			LSACR			RSACR			LTHI1			LTHI2			LTHI3			LTHI4			LLFC			LMFC			LTIB1			LTIB2			LTIB3			LTIB4			LLMAL			LMMAL			LHEE			LMT1			LMT2			LMT5			RTHI			RTHI2			RTHI3			RTHI4			RLFC			RMFC			RTIB1			RTIB2			RTIB3			RTIB4			RLMAL			RMMAL			RHEE			RMT1			RMT2			RMT5			
		X1	Y1	Z1	X2	Y2	Z2	X3	Y3	Z3	X4	Y4	Z4	X5	Y5	Z5	X6	Y6	Z6	X7	Y7	Z7	X8	Y8	Z8	X9	Y9	Z9	X10	Y10	Z10	X11	Y11	Z11	X12	Y12	Z12	X13	Y13	Z13	X14	Y14	Z14	X15	Y15	Z15	X16	Y16	Z16	X17	Y17	Z17	X18	Y18	Z18	X19	Y19	Z19	X20	Y20	Z20	X21	Y21	Z21	X22	Y22	Z22	X23	Y23	Z23	X24	Y24	Z24	X25	Y25	Z25	X26	Y26	Z26	X27	Y27	Z27	X28	Y28	Z28	X29	Y29	Z29	X30	Y30	Z30	X31	Y31	Z31	X32	Y32	Z32	X33	Y33	Z33	X34	Y34	Z34	X35	Y35	Z35	X36	Y36	Z36	X37	Y37	Z37	X38	Y38	Z38	X39	Y39	Z39	X40	Y40	Z40	X41	Y41	Z41	X42	Y42	Z42	X43	Y43	Z43	X44	Y44	Z44	X45	Y45	Z45	X46	Y46	Z46	X47	Y47	Z47	X48	Y48	Z48	X49	Y49	Z49	X50	Y50	Z50	X51	Y51	Z51	X52	Y52	Z52	X53	Y53	Z53	X54	Y54	Z54	X55	Y55	Z55	X56	Y56	Z56	X57	Y57	Z57	X58	Y58	Z58	X59	Y59	Z59	X60	Y60	Z60	X61	Y61	Z61	

190	0.9450000000000001	-246.4047241210938	1664.248168945313	-952.2204589843752	-383.2241210937501	1634.8134765625	-947.1734008789065	-377.9194030761719	1619.603149414063	-811.5991210937502	-423.554168701172	1525.65673828125	-880.6765136718752	-496.5401916503907	1188.254638671875	-881.305603027344	-308.3932189941407	1428.359130859375	-884.921569824219	-338.1654968261719	1456.452392578125	-1056.592163085938	-421.272674560547	1364.530151367188	-1172.417358398438	-403.5484008789064	1317.139038085938	-1173.072387695313	-452.7901611328126	1314.152099609375	-1210.65673828125	-488.7329711914064	1228.1884765625	-1256.455444335938	-557.7494506835939	1212.65673828125	-1211.533081054688	-404.689666748047	1026.215698242188	-1106.488403320313	-367.7289733886719	1008.202575683594	-1167.9326171875	-364.4549560546876	1019.758850097656	-1062.16162109375	-315.7839355468751	1452.350219726563	-713.5326538085939	-402.048065185547	1372.6162109375	-569.4259033203126	-387.932830810547	1325.28515625	-564.0133056640626	-435.1817626953126	1328.768310546875	-526.7145385742189	-458.9469299316407	1250.3525390625	-481.2195129394532	-535.6335449218751	1239.456420898438	-533.5089111328126	-439.0398254394532	1032.116821289063	-635.9838256835939	-392.0857543945314	1009.705383300781	-580.4434814453126	-378.1220703125001	1024.830078125	-682.0160522460939	-327.3243408203126	1023.567626953125	-1008.315734863281	-325.1506958007813	1015.208984375	-753.8742065429689	-509.7257385253907	1080.192993164063	-875.5547485351565	-521.0091552734376	1051.488037109375	-904.055114746094	-524.6680297851564	1049.023681640625	-848.387878417969	-393.9388122558595	715.5505981445314	-1100.806640625	-364.7894592285157	636.5209350585939	-1095.337280273438	-324.0673828125001	634.4196166992189	-1067.399169921875	-398.2920532226564	586.6329956054689	-1095.268798828125	-403.1967773437501	527.4386596679689	-1104.569458007813	-397.3825073242189	500.3144836425782	-969.0606689453127	-365.9143371582032	323.3116760253907	-1086.839233398438	-429.2814331054689	294.1342773437501	-1140.160888671875	-387.7090454101564	282.1641540527344	-1123.825805664063	-391.3000488281251	200.0496063232422	-1101.268310546875	-463.4641418457032	88.17406463623048	-1138.285766601563	-446.3500061035157	103.7360458374024	-1052.104736328125	-518.3251342773439	50.7782440185547	-1097.8896484375	-289.1450195312501	54.54991912841798	-1077.17822265625	-292.1884460449219	54.35058212280275	-1115.463500976563	-330.5140686035157	37.09189987182618	-1169.545043945313	-430.4768676757814	794.5283203125002	-671.3615722656251	-398.5534057617189	736.7994995117189	-662.8279418945314	-364.8208618164063	736.1848754882814	-666.0302124023439	-430.0155334472657	659.8470458984376	-679.6752319335939	-415.8378906250001	509.996795654297	-679.9246826171876	-400.0800781250001	484.7655334472657	-806.9658203125002	-370.5824279785157	338.5596618652344	-746.0716552734376	-402.3334960937501	264.4067077636719	-672.8682861328126	-374.6969909667969	258.6287536621094	-712.1301879882814	-390.0195617675782	210.4424133300782	-741.2270507812501	-449.048065185547	86.07105255126955	-681.4011230468751	-427.7492065429689	100.7775421142578	-768.7842407226565	-507.103729248047	44.03466415405274	-741.8130493164064	-278.8108215332032	55.6583824157715	-711.2182006835939	-287.2115478515626	55.40319442749025	-671.1940917968751	-335.8067626953126	35.00835037231446	-629.3274536132814	
191	0.9500000000000001	-245.3987426757813	1663.191040039063	-951.5289306640627	-381.8276977539063	1635.107055664063	-946.2946777343752	-376.9193725585938	1620.1162109375	-810.609558105469	-423.1137084960939	1525.723388671875	-879.2022094726565	-496.623016357422	1188.31201171875	-880.167419433594	-308.1188659667969	1428.2099609375	-883.7070312500002	-338.1667480468751	1456.6474609375	-1055.36474609375	-421.8159179687501	1364.939575195313	-1171.206420898438	-403.9826965332032	1317.551513671875	-1172.259155273438	-453.3135375976564	1314.79345703125	-1209.453735351563	-489.2326965332032	1228.909790039063	-1255.34033203125	-558.2048339843751	1213.357299804688	-1210.395629882813	-405.2911071777345	1026.520385742188	-1105.932983398438	-368.4527893066407	1008.579772949219	-1167.244140625	-365.1460876464844	1019.965026855469	-1061.632934570313	-315.2250366210938	1452.055297851563	-712.5745239257814	-401.2568969726564	1372.241577148438	-568.1870727539064	-387.0974731445314	1324.983032226563	-562.8463745117189	-434.3424682617189	1328.400512695313	-525.5593872070314	-458.216033935547	1250.01025390625	-480.148895263672	-535.0162963867189	1239.2958984375	-532.1652832031251	-438.5900878906251	1031.923950195313	-635.1388549804689	-391.7114257812501	1009.392272949219	-579.6971435546876	-377.8129577636719	1024.604736328125	-681.2261352539064	-327.8121948242188	1023.727294921875	-1007.851623535156	-324.9987792968751	1015.090087890625	-753.1430053710939	-509.7792968750001	1080.255737304688	-874.5821533203127	-521.2106323242189	1051.610595703125	-903.1729736328127	-524.7789916992189	1049.030151367188	-847.403991699219	-393.4775695800782	715.4230957031251	-1100.447143554688	-363.4555969238282	636.7014160156251	-1095.12109375	-322.5406799316407	634.9495239257814	-1067.334716796875	-396.9044494628907	586.4730224609376	-1094.840454101563	-401.2649536132814	527.3740234375001	-1104.135375976563	-395.1903076171876	500.1937561035157	-968.617126464844	-364.7072448730469	323.0364379882813	-1086.704956054688	-427.9337158203126	294.3170471191407	-1139.819091796875	-386.5350646972657	282.1178588867188	-1123.340454101563	-390.6539916992189	200.0074920654297	-1101.022705078125	-463.3148193359376	88.3882522583008	-1138.20751953125	-446.0695800781251	103.851676940918	-1051.949951171875	-518.2551879882814	50.94651794433595	-1097.781616210938	-289.0942993164063	54.5361785888672	-1077.030395507813	-292.1774902343751	54.34144592285158	-1115.406372070313	-330.4416503906251	37.13731384277344	-1169.4130859375	-430.474578857422	794.5440063476565	-670.6107788085939	-398.5742492675782	736.7216186523439	-662.1953125000001	-364.8761596679688	736.1065673828126	-665.4730224609376	-430.1096496582032	659.8314819335939	-679.0573730468751	-415.955291748047	509.9190673828126	-679.3853149414064	-400.4551696777345	484.8040466308595	-806.4509887695315	-370.7356262207032	338.5578613281251	-745.7588500976564	-402.3008728027345	264.3287658691407	-672.5784301757814	-374.7663574218751	258.5942382812501	-711.9077148437501	-390.1432495117189	210.4148864746094	-741.0303344726564	-449.1291503906251	85.99653625488283	-681.2418212890626	-427.8129882812501	100.7690582275391	-768.639099121094	-507.1512145996095	44.02290725708009	-741.7197265625001	-278.7707519531251	55.67304992675783	-711.1417236328126	-287.2072753906251	55.31576156616212	-671.1406250000001	-335.8132324218751	34.98519515991212	-629.2762451171876	
192	0.9550000000000001	-243.1102447509766	1662.075927734375	-950.0836181640627	-380.3517761230469	1635.2919921875	-945.201110839844	-376.0100402832032	1620.695922851563	-809.8226318359377	-422.8006286621095	1525.769653320313	-877.9263916015627	-496.6814270019532	1188.38623046875	-879.222351074219	-307.9616088867188	1428.178833007813	-882.759216308594	-338.2927856445313	1456.80224609375	-1054.197875976563	-422.1881408691407	1365.362548828125	-1169.744262695313	-404.5071105957032	1318.046630859375	-1171.25	-453.6927185058595	1315.422119140625	-1208.468017578125	-489.7905883789064	1229.5400390625	-1254.41943359375	-558.6845703125001	1214.066284179688	-1209.22265625	-405.9079589843751	1026.807983398438	-1105.325439453125	-369.0817260742188	1008.999267578125	-1166.708984375	-365.7446899414063	1020.164794921875	-1061.0810546875	-314.6484985351563	1451.82763671875	-711.4384155273439	-400.3970642089845	1371.834838867188	-566.9851074218751	-386.3600158691407	1324.520874023438	-561.7551269531251	-433.4570922851564	1327.984130859375	-524.3499145507814	-457.3273010253907	1249.613891601563	-478.9561157226564	-534.2956542968751	1239.07470703125	-530.8544311523439	-438.6669921875001	1031.685791015625	-634.3957519531251	-391.4349060058595	1009.020263671875	-579.2401123046876	-377.5411682128907	1024.395629882813	-680.5187377929689	-328.3538513183594	1023.780090332031	-1007.237182617188	-324.9513244628907	1014.887634277344	-752.6578369140626	-509.910125732422	1080.3662109375	-873.5610351562502	-521.5991821289064	1051.705932617188	-902.101501464844	-524.6110839843751	1049.089599609375	-846.4111938476565	-392.8366699218751	715.4256591796876	-1099.88623046875	-362.2552490234376	636.7709960937501	-1094.74658203125	-321.4808959960938	635.0292358398439	-1067.016479492188	-395.3614501953126	586.3519287109376	-1094.414916992188	-399.4255371093751	527.3450927734376	-1103.782592773438	-393.0894775390626	500.1780395507814	-968.2535400390627	-363.1715087890626	322.8271789550782	-1086.29345703125	-426.8944396972657	294.5617980957032	-1139.537963867188	-385.450897216797	282.2514038085938	-1123.137939453125	-389.9286193847657	199.9780426025391	-1100.942626953125	-463.0815734863282	88.57422637939455	-1138.167724609375	-445.8282470703126	104.0452651977539	-1051.880859375	-518.1837158203126	51.07997512817384	-1097.669921875	-289.0695800781251	54.53337478637697	-1076.966064453125	-292.1663513183594	54.39333724975587	-1115.35498046875	-330.3784179687501	37.34149932861329	-1169.286499023438	-430.3875122070314	794.4844970703127	-670.0171508789064	-398.5780029296876	736.6813354492189	-661.6020507812501	-364.9013061523438	736.0408935546876	-664.8627319335939	-430.2269592285157	659.8195190429689	-678.5135498046876	-416.127410888672	509.8150939941407	-678.8084716796876	-400.8152770996095	484.8836669921876	-806.0245361328127	-371.0893249511719	338.5963745117188	-745.4619750976564	-402.3065185546876	264.2313842773438	-672.2614135742189	-374.8246459960938	258.5470886230469	-711.7378540039064	-390.2964782714845	210.3878784179688	-740.8697509765626	-449.1492004394532	85.90317535400392	-681.1071777343751	-427.9811096191407	100.7534790039063	-768.546569824219	-507.1255187988282	43.97982406616212	-741.5769042968751	-278.8629150390626	55.65300369262697	-711.0991210937501	-287.2510681152344	55.29396820068361	-671.1323852539064	-335.7967834472657	34.94126892089844	-629.1777343750001	
193	0.96	-241.6310272216797	1660.687377929688	-949.558776855469	-379.0995788574219	1635.590087890625	-944.3251953125002	-374.6816406250001	1621.146850585938	-808.5797119140627	-422.4852600097657	1525.767578125	-876.5782470703127	-496.6531982421876	1188.467529296875	-878.0889892578127	-307.6857604980469	1428.055053710938	-881.549255371094	-338.4114990234376	1457.141235351563	-1053.123779296875	-422.2806396484376	1365.995483398438	-1168.7734375	-404.7626953125001	1318.59619140625	-1170.123657226563	-454.1541137695314	1316.05517578125	-1207.311645507813	-490.3703918457032	1230.225341796875	-1253.396728515625	-559.1835937500001	1214.742553710938	-1208.237426757813	-406.5772705078126	1027.0419921875	-1104.69677734375	-369.7807617187501	1009.419311523438	-1166.290283203125	-366.2896728515626	1020.275390625	-1060.4775390625	-314.0502319335938	1451.476928710938	-710.2543945312501	-399.5361938476564	1371.431030273438	-565.7330322265626	-385.5436096191407	1324.06396484375	-560.7391967773439	-432.5750732421876	1327.626831054688	-523.1030273437501	-456.4880981445314	1249.162475585938	-477.8269958496095	-533.5740966796876	1238.837158203125	-529.6447753906251	-438.4301147460939	1031.468017578125	-633.6274414062501	-391.0213623046876	1008.691833496094	-578.5865478515626	-377.3492736816407	1024.221801757813	-679.8944091796876	-328.9313049316407	1023.885375976563	-1006.696533203125	-325.1910705566407	1014.727355957031	-752.8732910156251	-510.1477355957032	1080.429077148438	-872.6057128906252	-521.7935180664064	1051.856201171875	-901.249206542969	-524.7362670898439	1049.157470703125	-845.4426879882815	-392.1919555664064	715.3601684570314	-1099.295166015625	-361.5077209472657	636.5588989257814	-1093.927368164063	-320.2855224609376	635.1065063476564	-1066.797119140625	-393.7737426757814	586.2982788085939	-1093.9443359375	-397.5020751953126	527.3305053710939	-1103.4853515625	-390.5712280273439	500.0454711914064	-967.961120605469	-361.7697143554688	322.7632141113282	-1085.992919921875	-425.7675781250001	294.7385253906251	-1139.248168945313	-384.2555541992189	282.2268676757813	-1122.924438476563	-389.1043090820314	199.9659729003907	-1100.649780273438	-462.8357238769532	88.85137176513673	-1138.0849609375	-445.550750732422	104.2397155761719	-1051.806518554688	-518.1275024414064	51.2909393310547	-1097.602172851563	-289.0048217773438	54.54398345947267	-1076.896118164063	-292.1834716796876	54.37807464599611	-1115.258666992188	-330.3540954589844	37.43542480468751	-1169.18603515625	-430.4109497070314	794.4510498046877	-669.4231567382814	-398.6256408691407	736.6435546875001	-660.9652099609376	-364.9107360839844	735.9760742187501	-664.2651977539064	-430.3318786621095	659.7770385742189	-677.9447021484376	-416.2648010253907	509.7253723144532	-678.2346801757814	-401.1701049804689	484.887176513672	-805.6071777343752	-371.2746582031251	338.5652160644532	-745.2582397460939	-402.3052978515626	264.1429138183594	-671.9649047851564	-374.9176940917969	258.5030517578126	-711.5516967773439	-390.4394836425782	210.3732299804688	-740.6983032226564	-449.1905212402345	85.79924774169923	-681.0301513671876	-428.0631103515626	100.6811828613282	-768.405700683594	-507.1988830566407	43.9775505065918	-741.4894409179689	-278.8358764648438	55.63970947265626	-711.0559082031251	-287.2490844726563	55.27161788940431	-671.1120605468751	-335.8021545410157	34.87762832641602	-629.1538085937501	
